# xmcd CD database file
#
# Track frame offsets:
#	150
#	19987
#	38360
#	61650
#	79131
#	93600
#	116285
#	134660
#	152925
#	171485
#	194070
#	215775
#	234600
#
# Disc length: 3430 seconds
#
# Revision: 1
# Processed by: cddbd v1.5.2PL0 Copyright (c) Steve Scherf et al.
# Submitted via: CDex 1.70beta3
#
DISCID=ba0d640d
DTITLE=ET-KING - U
DYEAR=2009
DGENRE=Hip-Hop
TTITLE0=男の主題歌
TTITLE1=鼓動
TTITLE2=新恋愛
TTITLE3=せんたくのうた
TTITLE4=牛乳グビGROOVY
TTITLE5=平成ド阿呆
TTITLE6=今
TTITLE7=ギラギラ
TTITLE8=夜を駆け抜けろ
TTITLE9=君想う花
TTITLE10=巡り会いの中で
TTITLE11=恋はマジカルミキサー!
TTITLE12=帰り道
EXTD=YEAR: 2009
EXTT0=
EXTT1=
EXTT2=
EXTT3=
EXTT4=
EXTT5=
EXTT6=
EXTT7=
EXTT8=
EXTT9=
EXTT10=
EXTT11=
EXTT12=
PLAYORDER=
